<svg height="480pt" viewBox="0 0 480 480" width="480pt" xmlns="http://www.w3.org/2000/svg"><path d="m240 384c79.527344 0 144-64.472656 144-144s-64.472656-144-144-144-144 64.472656-144 144 64.472656 144 144 144zm232-176.960938v65.921876c-.011719 4.039062-3.03125 7.433593-7.039062 7.917968l-38.480469 4.800782c-4.613281 19.019531-12.140625 37.207031-22.320313 53.921874l23.839844 30.558594c2.476562 3.179688 2.203125 7.703125-.640625 10.558594l-46.640625 46.640625c-2.855469 2.84375-7.378906 3.117187-10.558594.640625l-30.558594-23.839844c-16.714843 10.179688-34.902343 17.707032-53.921874 22.320313l-4.800782 38.480469c-.484375 4.007812-3.878906 7.027343-7.917968 7.039062h-65.921876c-4.039062-.011719-7.433593-3.03125-7.917968-7.039062l-4.800782-38.480469c-19.019531-4.613281-37.207031-12.140625-53.921874-22.320313l-30.558594 23.839844c-3.179688 2.476562-7.703125 2.203125-10.558594-.640625l-46.640625-46.640625c-2.84375-2.855469-3.117187-7.378906-.640625-10.558594l23.839844-30.558594c-10.179688-16.714843-17.707032-34.902343-22.320313-53.921874l-38.480469-4.800782c-4.007812-.484375-7.027343-3.878906-7.039062-7.917968v-65.921876c.011719-4.039062 3.03125-7.433593 7.039062-7.917968l38.480469-4.800782c4.613281-19.019531 12.140625-37.207031 22.320313-53.921874l-23.839844-30.558594c-2.476562-3.179688-2.203125-7.703125.640625-10.558594l46.640625-46.640625c2.855469-2.84375 7.378906-3.117187 10.558594-.640625l30.558594 23.839844c16.714843-10.179688 34.902343-17.707032 53.921874-22.320313l4.800782-38.480469c.484375-4.007812 3.878906-7.027343 7.917968-7.039062h65.921876c4.039062.011719 7.433593 3.03125 7.917968 7.039062l4.800782 38.480469c19.019531 4.613281 37.207031 12.140625 53.921874 22.320313l30.558594-23.839844c3.179688-2.476562 7.703125-2.203125 10.558594.640625l46.640625 46.640625c2.84375 2.855469 3.117187 7.378906.640625 10.558594l-23.839844 30.558594c10.179688 16.714843 17.707032 34.902343 22.320313 53.921874l38.480469 4.800782c4.007812.484375 7.027343 3.878906 7.039062 7.917968zm0 0" fill="#bddbff"/><path d="m282.558594 274.320312c-.878906-.71875-1.757813-1.519531-2.558594-2.320312-12.476562-12.515625-12.476562-32.765625 0-45.28125 16.960938-16.957031 62.238281-16.957031 62.238281-16.957031s0 45.277343-16.957031 62.238281c-11.578125 11.53125-29.964844 12.53125-42.722656 2.320312zm0 0" fill="#bddbff"/><path d="m236.878906 258.238281c-1.46875 2.050781-3.097656 3.976563-4.878906 5.761719-18.769531 18.722656-49.152344 18.722656-67.921875 0-22.558594-22.640625-22.558594-90.480469-22.558594-90.480469s67.839844 0 90.480469 22.558594c16.664062 16.714844 18.730469 43.050781 4.878906 62.160156zm0 0" fill="#bddbff"/><g fill="#3d9ae2"><path d="m271.824219 274.574219-6.398438 7.496093c-5.371093-8.808593-11.558593-17.097656-18.480469-24.75 12.179688-21.855468 8.398438-49.136718-9.265624-66.855468-24.273438-24.273438-88.878907-24.96875-96.160157-24.96875-4.417969 0-8 3.582031-8 8 0 7.28125.695313 71.886718 24.96875 96.160156 21.628907 21.597656 56.582031 21.863281 78.535157.589844 7.402343 8.480468 13.769531 17.808594 18.976562 27.785156v53.96875h16v-53.039062l12.238281-14.28125c15.398438 8.246093 34.386719 5.386718 46.671875-7.023438 18.769532-18.769531 19.3125-62.914062 19.3125-67.878906 0-4.417969-3.582031-8-8-8-4.964844 0-49.109375.542968-67.878906 19.3125-14.449219 14.535156-15.539062 37.65625-2.519531 53.484375zm-102.046875-16.230469c-14.519532-14.519531-19.144532-54.75-20.089844-76.65625 21.90625.945312 62.136719 5.601562 76.65625 20.089844 11.402344 11.417968 14.839844 28.5625 8.71875 43.496094-11.878906-11.140626-25.152344-20.699219-39.488281-28.433594l-7.148438 14.320312c13.660157 7.480469 26.269531 16.738282 37.503907 27.527344-15.652344 15.289062-40.691407 15.136719-56.152344-.34375zm115.878906-25.945312c9.769531-9.765626 33.519531-13.328126 48.265625-14.308594-.976563 14.734375-4.53125 38.453125-14.320313 48.253906-6.4375 6.394531-15.933593 8.597656-24.53125 5.695312l23-26.832031-12.140624-10.398437-23.523438 27.4375c-6.039062-9.480469-4.691406-21.886719 3.25-29.847656zm0 0"/><path d="m465.984375 191.199219-33.121094-4.136719c-4.382812-16.078125-10.773437-31.539062-19.023437-46.023438l20.472656-26.320312c4.953125-6.367188 4.390625-15.429688-1.3125-21.132812l-46.601562-46.585938c-5.707032-5.703125-14.765626-6.265625-21.132813-1.3125l-26.304687 20.472656c-14.476563-8.246094-29.933594-14.640625-46.007813-19.023437l-4.152344-33.121094c-1-8.003906-7.800781-14.0078125-15.863281-14.015625h-65.875c-8.0625.0078125-14.863281 6.011719-15.863281 14.015625l-4.136719 33.121094c-16.078125 4.382812-31.539062 10.773437-46.023438 19.023437l-26.320312-20.472656c-6.367188-4.953125-15.429688-4.390625-21.132812 1.3125l-46.585938 46.601562c-5.703125 5.707032-6.265625 14.765626-1.3125 21.132813l20.472656 26.320313c-8.246094 14.476562-14.640625 29.9375-19.023437 46.007812l-33.121094 4.136719c-8.003906 1-14.0078125 7.800781-14.015625 15.863281v65.875c.0078125 8.0625 6.011719 14.863281 14.015625 15.863281l33.121094 4.136719c4.382812 16.078125 10.773437 31.539062 19.023437 46.023438l-20.472656 26.320312c-4.945312 6.363281-4.382812 15.414062 1.3125 21.117188l46.601562 46.601562c5.707032 5.703125 14.765626 6.265625 21.132813 1.3125l26.320313-20.472656c14.476562 8.246094 29.9375 14.640625 46.007812 19.023437l4.136719 33.121094c1 8.003906 7.800781 14.007813 15.863281 14.015625h65.875c8.0625-.007812 14.863281-6.011719 15.863281-14.015625l4.136719-33.121094c16.078125-4.382812 31.539062-10.773437 46.023438-19.023437l26.320312 20.472656c6.367188 4.953125 15.429688 4.390625 21.132812-1.3125l46.585938-46.601562c5.703125-5.707032 6.265625-14.765626 1.3125-21.132813l-20.472656-26.304687c8.246094-14.476563 14.640625-29.933594 19.023437-46.007813l33.121094-4.136719c8.007813-1 14.015625-7.808594 14.015625-15.878906v-65.875c-.007812-8.0625-6.011719-14.863281-14.015625-15.863281zm-1.984375 81.738281-38.503906 4.796875c-3.296875.410156-5.996094 2.816406-6.785156 6.042969-4.425782 18.203125-11.632813 35.617187-21.359376 51.628906-1.726562 2.839844-1.519531 6.453125.519532 9.074219l23.808594 30.609375-46.574219 46.589844-30.609375-23.808594c-2.621094-2.039063-6.234375-2.246094-9.070313-.519532-16.015625 9.726563-33.429687 16.933594-51.632812 21.359376-3.226563.789062-5.632813 3.488281-6.039063 6.785156l-4.816406 38.503906h-65.875l-4.796875-38.503906c-.410156-3.296875-2.816406-5.996094-6.042969-6.785156-18.203125-4.425782-35.617187-11.632813-51.628906-21.359376-2.839844-1.726562-6.453125-1.519531-9.074219.519532l-30.625 23.808594-46.574219-46.574219 23.808594-30.609375c2.039063-2.621094 2.246094-6.234375.519532-9.070313-9.726563-16.015625-16.933594-33.429687-21.359376-51.632812-.789062-3.226563-3.488281-5.632813-6.785156-6.039063l-38.503906-4.816406v-65.875l38.503906-4.796875c3.296875-.410156 5.996094-2.816406 6.785156-6.042969 4.425782-18.203125 11.632813-35.617187 21.359376-51.628906 1.726562-2.839844 1.519531-6.453125-.519532-9.074219l-23.808594-30.625 46.574219-46.574219 30.609375 23.808594c2.621094 2.039063 6.234375 2.246094 9.070313.519532 16.015625-9.726563 33.429687-16.933594 51.632812-21.359376 3.226563-.789062 5.632813-3.488281 6.039063-6.785156l4.816406-38.503906h65.875l4.796875 38.503906c.410156 3.296875 2.816406 5.996094 6.042969 6.785156 18.203125 4.425782 35.617187 11.632813 51.628906 21.359376 2.839844 1.726562 6.453125 1.519531 9.074219-.519532l30.625-23.808594 46.574219 46.574219-23.808594 30.609375c-2.039063 2.621094-2.246094 6.234375-.519532 9.070313 9.726563 16.015625 16.933594 33.429687 21.359376 51.632812.789062 3.226563 3.488281 5.632813 6.785156 6.039063l38.503906 4.800781zm0 0"/><path d="m240 88c-83.949219 0-152 68.050781-152 152s68.050781 152 152 152 152-68.050781 152-152c-.09375-83.910156-68.089844-151.90625-152-152zm0 288c-75.109375 0-136-60.890625-136-136s60.890625-136 136-136 136 60.890625 136 136c-.082031 75.074219-60.925781 135.917969-136 136zm0 0"/><path d="m232 56h16v16h-16zm0 0"/><path d="m104.234375 115.546875 11.316406-11.3125 11.3125 11.3125-11.3125 11.3125zm0 0"/><path d="m56 232h16v16h-16zm0 0"/><path d="m104.238281 364.457031 11.3125-11.316406 11.3125 11.316406-11.3125 11.3125zm0 0"/><path d="m232 408h16v16h-16zm0 0"/><path d="m353.132812 364.441406 11.316407-11.3125 11.3125 11.3125-11.3125 11.316406zm0 0"/><path d="m408 232h16v16h-16zm0 0"/><path d="m353.140625 115.554688 11.3125-11.3125 11.316406 11.3125-11.316406 11.316406zm0 0"/></g></svg>