<svg height="368pt" viewBox="0 0 368 368" width="368pt" xmlns="http://www.w3.org/2000/svg"><g fill="#cce4ff"><path d="m183.976562 360 176-224h-96zm0 0"/><path d="m183.976562 8-80 128h160zm0 0"/><path d="m7.976562 136 176 224-80-224zm0 0"/></g><path d="m.238281 137.832031c.058594.238281.152344.457031.234375.6875.121094.351563.183594.710938.351563 1.054688.175781.355469.441406.640625.664062.960937.085938.128906.105469.28125.207031.410156l176 224c.039063.046876.105469.0625.144532.109376.640625.777343 1.441406 1.386718 2.320312 1.867187.238282.132813.464844.246094.710938.351563.96875.429687 2 .726562 3.105468.726562 1.105469 0 2.144532-.296875 3.113282-.71875.246094-.105469.46875-.226562.710937-.351562.878907-.488282 1.679688-1.089844 2.320313-1.875.039062-.046876.101562-.0625.144531-.109376l176-224c.09375-.128906.117187-.28125.207031-.410156.222656-.320312.480469-.605468.664063-.960937.167969-.335938.230469-.703125.351562-1.046875.078125-.230469.175781-.457032.230469-.6875.210938-.886719.289062-1.792969.195312-2.6875-.019531-.152344-.082031-.289063-.105468-.441406-.128906-.75-.359375-1.472657-.695313-2.167969-.121093-.253907-.25-.488281-.402343-.726563-.117188-.199218-.191407-.417968-.335938-.609375l-96-128c-.09375-.128906-.261719-.183593-.367188-.304687-.535156-.628906-1.167968-1.125-1.878906-1.566406-.273437-.167969-.496094-.390626-.792968-.535157-1.023438-.488281-2.144532-.800781-3.359376-.800781h-160c-1.214843 0-2.335937.3125-3.359374.792969-.296876.136719-.519532.359375-.792969.535156-.703125.441406-1.34375.9375-1.878907 1.566406-.105468.128907-.273437.175781-.371093.304688l-96 128c-.140625.191406-.214844.410156-.335938.609375-.148437.238281-.277343.472656-.398437.726562-.335938.695313-.574219 1.417969-.695313 2.167969-.023437.152344-.0898435.289063-.1054685.441406-.09375.902344-.015625 1.800781.1992185 2.6875zm111.738281-121.832031h57.566407l-57.566407 92.105469zm140.648438 128-68.648438 192.207031-68.648437-192.207031zm-134.21875-16 65.570312-104.902344 65.566407 104.902344zm151.203125 16h73.902344l-135.496094 172.457031zm-13.632813-35.894531-57.570312-92.105469h57.570312zm-157.632812 35.894531 61.59375 172.457031-135.503906-172.457031zm173.632812-16v-96l72 96zm-176-96v96h-72zm0 0" fill="#007aff"/></svg>