<svg id="Capa_1" enable-background="new 0 0 64 64" height="512" viewBox="0 0 64 64" width="512" xmlns="http://www.w3.org/2000/svg"><g fill="#57a4ff"><path d="m48 32c.007 3.939-1.447 7.741-4.08 10.67-.44-5.076-4.003-9.337-8.92-10.67 1.906-.921 3.084-2.885 3-5 0-3.314-2.686-6-6-6s-6 2.686-6 6c-.084 2.115 1.094 4.079 3 5-4.917 1.333-8.48 5.594-8.92 10.67-5.895-6.583-5.336-16.698 1.247-22.593s16.698-5.336 22.593 1.247c2.628 2.935 4.081 6.736 4.08 10.676z"/><circle cx="32" cy="6" r="4"/><circle cx="32" cy="58" r="4"/><circle cx="7" cy="32" r="5"/><circle cx="51" cy="51" r="3"/><circle cx="51" cy="13" r="3"/><circle cx="7" cy="57" r="3"/></g><path d="m57 26c-2.932.003-5.432 2.125-5.912 5.018-.031 0-.057-.018-.088-.018h-2c-.018 0-.033.009-.05.01-.219-3.813-1.722-7.439-4.265-10.288.007-.007.016-.008.022-.015l4-4c.088-.089.158-.195.206-.311.626.392 1.349.601 2.087.604 2.209 0 4-1.791 4-4s-1.791-4-4-4-4 1.791-4 4c.002.738.21 1.461.6 2.087-.116.048-.222.118-.311.206l-4 4c-.007.006-.008.015-.015.022-2.848-2.542-6.473-4.045-10.284-4.265 0-.017.01-.032.01-.05v-4c-.005-.034-.011-.067-.02-.1 2.708-.541 4.464-3.175 3.923-5.883s-3.175-4.464-5.883-3.923-4.464 3.175-3.923 5.883c.396 1.98 1.943 3.527 3.923 3.923-.009.033-.015.066-.02.1v4c0 .018.009.033.01.05-3.813.219-7.439 1.722-10.288 4.265-.007-.007-.008-.016-.015-.022l-9-9c-.089-.088-.195-.158-.311-.206.392-.626.601-1.349.604-2.087 0-2.209-1.791-4-4-4s-4 1.791-4 4 1.791 4 4 4c.738-.002 1.461-.21 2.087-.6.048.116.118.222.206.311l9 9c.006.007.015.008.022.015-2.542 2.848-4.045 6.473-4.265 10.284-.017 0-.032-.01-.05-.01h-2c-.031 0-.057.015-.088.018-.542-3.269-3.632-5.479-6.901-4.937s-5.479 3.632-4.937 6.901 3.632 5.479 6.901 4.937c2.532-.42 4.517-2.405 4.937-4.937.031 0 .057.018.088.018h2c.018 0 .033-.009.05-.01.217 3.784 1.699 7.386 4.209 10.226.048.072.107.136.173.192 2.983 3.294 7.141 5.285 11.578 5.542 0 .017-.01.032-.01.05v4c.005.034.011.067.02.1-2.708.541-4.464 3.175-3.923 5.883s3.175 4.464 5.883 3.923 4.464-3.175 3.923-5.883c-.396-1.98-1.943-3.527-3.923-3.923.009-.033.015-.066.02-.1v-4c0-.018-.009-.033-.01-.05 3.813-.219 7.439-1.722 10.288-4.265.007.007.008.016.015.022l4 4c.089.088.195.158.311.206-.392.626-.601 1.349-.604 2.087 0 2.209 1.791 4 4 4s4-1.791 4-4-1.791-4-4-4c-.738.002-1.461.21-2.087.6-.048-.116-.118-.222-.206-.311l-4-4c.017-.022.023-.05.038-.074 2.508-2.84 3.989-6.442 4.205-10.225.017 0 .032.01.05.01h2c.031 0 .057-.015.088-.018.542 3.269 3.632 5.479 6.901 4.937s5.479-3.632 4.937-6.901c-.481-2.898-2.989-5.021-5.926-5.018zm-6-15c1.105 0 2 .895 2 2s-.895 2-2 2-2-.895-2-2 .895-2 2-2zm-43-1c-1.105 0-2-.895-2-2s.895-2 2-2 2 .895 2 2-.895 2-2 2zm-1 26c-2.209 0-4-1.791-4-4s1.791-4 4-4 4 1.791 4 4-1.791 4-4 4zm44 13c1.105 0 2 .895 2 2s-.895 2-2 2-2-.895-2-2 .895-2 2-2zm-22-43c0-1.657 1.343-3 3-3s3 1.343 3 3-1.343 3-3 3-3-1.343-3-3zm6 52c0 1.657-1.343 3-3 3s-3-1.343-3-3 1.343-3 3-3c1.657 0 3 1.343 3 3zm-3-11c-4.109-.001-8.037-1.695-10.859-4.682.532-4.476 3.736-8.177 8.089-9.345.537-.127.87-.666.743-1.203-.067-.283-.253-.522-.511-.657-1.574-.75-2.544-2.371-2.462-4.113 0-2.761 2.239-5 5-5s5 2.239 5 5c.082 1.742-.888 3.363-2.462 4.113-.49.255-.68.859-.425 1.349.134.258.374.444.657.511 4.353 1.168 7.557 4.869 8.089 9.345-2.822 2.987-6.75 4.681-10.859 4.682zm12.479-6.691c-1-3.841-3.69-7.021-7.313-8.643 1.229-1.236 1.892-2.924 1.834-4.666 0-3.866-3.134-7-7-7s-7 3.134-7 7c-.058 1.742.605 3.43 1.834 4.666-3.623 1.622-6.313 4.802-7.313 8.643-4.597-6.892-2.736-16.205 4.156-20.802s16.205-2.736 20.802 4.156c3.361 5.039 3.361 11.606 0 16.646zm12.521-4.309c-2.209 0-4-1.791-4-4s1.791-4 4-4 4 1.791 4 4-1.791 4-4 4z" fill="#004fac"/><path d="m13.293 49.293-4 4c-.088.089-.158.195-.206.311-.626-.392-1.349-.601-2.087-.604-2.209 0-4 1.791-4 4s1.791 4 4 4 4-1.791 4-4c-.002-.738-.21-1.461-.6-2.087.116-.048.222-.118.311-.206l4-4c.384-.397.373-1.03-.025-1.414-.388-.374-1.002-.374-1.389 0zm-6.293 9.707c-1.105 0-2-.895-2-2s.895-2 2-2 2 .895 2 2-.895 2-2 2z" fill="#004fac"/><path d="m17.293 45.293-2 2c-.397.384-.408 1.017-.025 1.414.384.397 1.017.408 1.414.025.008-.008.017-.016.025-.025l2-2c.384-.397.373-1.03-.025-1.414-.387-.374-1.001-.374-1.389 0z" fill="#004fac"/><path d="m56 9c.265 0 .52-.105.707-.293l2-2c.397-.384.408-1.017.025-1.414-.384-.397-1.017-.408-1.414-.025-.008.008-.016.016-.025.025l-2 2c-.39.391-.39 1.024 0 1.414.188.188.442.293.707.293z" fill="#004fac"/></svg>